<svg width="60" height="60" viewBox="0 0 60 60" fill="none" xmlns="http://www.w3.org/2000/svg">
<path d="M30 3.75C15.375 3.75 3.75 15.375 3.75 30C3.75 44.625 15.375 56.25 30 56.25C44.625 56.25 56.25 44.625 56.25 30C56.25 15.375 44.625 3.75 30 3.75ZM30 52.5C17.625 52.5 7.5 42.375 7.5 30C7.5 17.625 17.625 7.5 30 7.5C42.375 7.5 52.5 17.625 52.5 30C52.5 42.375 42.375 52.5 30 52.5Z" fill="#704015" fill-opacity="0.94"/>
<path d="M40.125 43.125L30 33L19.875 43.125L16.875 40.125L27 30L16.875 19.875L19.875 16.875L30 27L40.125 16.875L43.125 19.875L33 30L43.125 40.125L40.125 43.125Z" fill="#704015"/>
</svg>
