<svg width="51" height="50" viewBox="0 0 51 50" fill="none" xmlns="http://www.w3.org/2000/svg">
<g clip-path="url(#clip0_5_440)">
<path d="M50.5 25C50.5 11.1914 39.3086 0 25.5 0C11.6914 0 0.5 11.1914 0.5 25C0.5 36.7188 8.57617 46.5625 19.4648 49.2676V32.6367H14.3086V25H19.4648V21.709C19.4648 13.2031 23.3125 9.25781 31.6719 9.25781C33.2539 9.25781 35.9883 9.57031 37.1113 9.88281V16.7969C36.5254 16.7383 35.5 16.6992 34.2207 16.6992C30.1191 16.6992 28.5371 18.252 28.5371 22.2852V25H36.7012L35.2949 32.6367H28.5273V49.8145C40.9102 48.3203 50.5 37.7832 50.5 25Z" fill="#704015"/>
</g>
<defs>
<clipPath id="clip0_5_440">
<rect width="50" height="50" fill="white" transform="translate(0.5)"/>
</clipPath>
</defs>
</svg>
