<svg width="61" height="60" viewBox="0 0 61 60" fill="none" xmlns="http://www.w3.org/2000/svg">
<path d="M20 5H41C49 5 55.5 11.5 55.5 19.5V40.5C55.5 44.3456 53.9723 48.0338 51.2531 50.7531C48.5338 53.4723 44.8456 55 41 55H20C12 55 5.5 48.5 5.5 40.5V19.5C5.5 15.6544 7.02767 11.9662 9.74695 9.24695C12.4662 6.52767 16.1544 5 20 5ZM19.5 10C17.1131 10 14.8239 10.9482 13.136 12.636C11.4482 14.3239 10.5 16.6131 10.5 19V41C10.5 45.975 14.525 50 19.5 50H41.5C43.8869 50 46.1761 49.0518 47.864 47.364C49.5518 45.6761 50.5 43.3869 50.5 41V19C50.5 14.025 46.475 10 41.5 10H19.5ZM43.625 13.75C44.4538 13.75 45.2487 14.0792 45.8347 14.6653C46.4208 15.2513 46.75 16.0462 46.75 16.875C46.75 17.7038 46.4208 18.4987 45.8347 19.0847C45.2487 19.6708 44.4538 20 43.625 20C42.7962 20 42.0013 19.6708 41.4153 19.0847C40.8292 18.4987 40.5 17.7038 40.5 16.875C40.5 16.0462 40.8292 15.2513 41.4153 14.6653C42.0013 14.0792 42.7962 13.75 43.625 13.75ZM30.5 17.5C33.8152 17.5 36.9946 18.817 39.3388 21.1612C41.683 23.5054 43 26.6848 43 30C43 33.3152 41.683 36.4946 39.3388 38.8388C36.9946 41.183 33.8152 42.5 30.5 42.5C27.1848 42.5 24.0054 41.183 21.6612 38.8388C19.317 36.4946 18 33.3152 18 30C18 26.6848 19.317 23.5054 21.6612 21.1612C24.0054 18.817 27.1848 17.5 30.5 17.5ZM30.5 22.5C28.5109 22.5 26.6032 23.2902 25.1967 24.6967C23.7902 26.1032 23 28.0109 23 30C23 31.9891 23.7902 33.8968 25.1967 35.3033C26.6032 36.7098 28.5109 37.5 30.5 37.5C32.4891 37.5 34.3968 36.7098 35.8033 35.3033C37.2098 33.8968 38 31.9891 38 30C38 28.0109 37.2098 26.1032 35.8033 24.6967C34.3968 23.2902 32.4891 22.5 30.5 22.5Z" fill="#704015"/>
</svg>
