<svg width="50" height="50" viewBox="0 0 50 50" fill="none" xmlns="http://www.w3.org/2000/svg">
<path d="M25 50C21.5833 50 18.3542 49.3433 15.3125 48.03C12.2708 46.7167 9.615 44.925 7.345 42.655C5.075 40.385 3.28333 37.7292 1.97 34.6875C0.656667 31.6458 0 28.4167 0 25C0 21.5417 0.656667 18.3025 1.97 15.2825C3.28333 12.2625 5.075 9.61667 7.345 7.345C9.615 5.07333 12.2708 3.28167 15.3125 1.97C18.3542 0.658334 21.5833 0.00166667 25 0C28.4583 0 31.6983 0.656667 34.72 1.97C37.7417 3.28333 40.3867 5.075 42.655 7.345C44.9233 9.615 46.715 12.2608 48.03 15.2825C49.345 18.3042 50.0017 21.5433 50 25C50 28.4167 49.3433 31.6458 48.03 34.6875C46.7167 37.7292 44.925 40.3858 42.655 42.6575C40.385 44.9292 37.7392 46.7208 34.7175 48.0325C31.6958 49.3442 28.4567 50 25 50ZM25 44.875C26.0833 43.375 27.0208 41.8125 27.8125 40.1875C28.6042 38.5625 29.25 36.8333 29.75 35H20.25C20.75 36.8333 21.3958 38.5625 22.1875 40.1875C22.9792 41.8125 23.9167 43.375 25 44.875ZM18.5 43.875C17.75 42.5 17.0942 41.0725 16.5325 39.5925C15.9708 38.1125 15.5017 36.5817 15.125 35H7.75C8.95833 37.0833 10.4692 38.8958 12.2825 40.4375C14.0958 41.9792 16.1683 43.125 18.5 43.875ZM31.5 43.875C33.8333 43.125 35.9067 41.9792 37.72 40.4375C39.5333 38.8958 41.0433 37.0833 42.25 35H34.875C34.5 36.5833 34.0317 38.115 33.47 39.595C32.9083 41.075 32.2517 42.5017 31.5 43.875ZM5.625 30H14.125C14 29.1667 13.9067 28.3442 13.845 27.5325C13.7833 26.7208 13.7517 25.8767 13.75 25C13.7483 24.1233 13.78 23.28 13.845 22.47C13.91 21.66 14.0033 20.8367 14.125 20H5.625C5.41667 20.8333 5.26083 21.6567 5.1575 22.47C5.05417 23.2833 5.00167 24.1267 5 25C4.99833 25.8733 5.05083 26.7175 5.1575 27.5325C5.26417 28.3475 5.42 29.17 5.625 30ZM19.125 30H30.875C31 29.1667 31.0942 28.3442 31.1575 27.5325C31.2208 26.7208 31.2517 25.8767 31.25 25C31.2483 24.1233 31.2167 23.28 31.155 22.47C31.0933 21.66 31 20.8367 30.875 20H19.125C19 20.8333 18.9067 21.6567 18.845 22.47C18.7833 23.2833 18.7517 24.1267 18.75 25C18.7483 25.8733 18.78 26.7175 18.845 27.5325C18.91 28.3475 19.0033 29.17 19.125 30ZM35.875 30H44.375C44.5833 29.1667 44.74 28.3442 44.845 27.5325C44.95 26.7208 45.0017 25.8767 45 25C44.9983 24.1233 44.9467 23.28 44.845 22.47C44.7433 21.66 44.5867 20.8367 44.375 20H35.875C36 20.8333 36.0942 21.6567 36.1575 22.47C36.2208 23.2833 36.2517 24.1267 36.25 25C36.2483 25.8733 36.2167 26.7175 36.155 27.5325C36.0933 28.3475 36 29.17 35.875 30ZM34.875 15H42.25C41.0417 12.9167 39.5317 11.1042 37.72 9.5625C35.9083 8.02083 33.835 6.875 31.5 6.125C32.25 7.5 32.9067 8.9275 33.47 10.4075C34.0333 11.8875 34.5017 13.4183 34.875 15ZM20.25 15H29.75C29.25 13.1667 28.6042 11.4375 27.8125 9.8125C27.0208 8.1875 26.0833 6.625 25 5.125C23.9167 6.625 22.9792 8.1875 22.1875 9.8125C21.3958 11.4375 20.75 13.1667 20.25 15ZM7.75 15H15.125C15.5 13.4167 15.9692 11.885 16.5325 10.405C17.0958 8.925 17.7517 7.49833 18.5 6.125C16.1667 6.875 14.0933 8.02083 12.28 9.5625C10.4667 11.1042 8.95667 12.9167 7.75 15Z" fill="#704015"/>
</svg>
