<svg width="12" height="12" viewBox="0 0 12 12" fill="none" xmlns="http://www.w3.org/2000/svg">
<path d="M9.45007 7.42552C9.29899 7.57194 9.22957 7.78369 9.26399 7.99135L9.78257 10.8614C9.82632 11.1046 9.72366 11.3508 9.52007 11.4914C9.32057 11.6372 9.05516 11.6547 8.83757 11.538L6.25399 10.1905C6.16416 10.1427 6.06441 10.117 5.96232 10.1141H5.80424C5.74941 10.1223 5.69574 10.1398 5.64674 10.1666L3.06257 11.5205C2.93482 11.5847 2.79016 11.6074 2.64841 11.5847C2.30307 11.5194 2.07266 11.1904 2.12924 10.8433L2.64841 7.97327C2.68282 7.76385 2.61341 7.55094 2.46232 7.40219L0.355907 5.36052C0.17974 5.1896 0.11849 4.93294 0.19899 4.70135C0.277157 4.47035 0.476657 4.30177 0.717573 4.26385L3.61674 3.84327C3.83724 3.82052 4.03091 3.68635 4.13007 3.48802L5.40757 0.868851C5.43791 0.810518 5.47699 0.756851 5.52424 0.711351L5.57674 0.670518C5.60416 0.640184 5.63566 0.615101 5.67066 0.594684L5.73424 0.571351L5.83341 0.530518H6.07899C6.29832 0.553268 6.49141 0.684518 6.59232 0.880518L7.88674 3.48802C7.98007 3.67877 8.16149 3.81119 8.37091 3.84327L11.2701 4.26385C11.5151 4.29885 11.7198 4.46802 11.8009 4.70135C11.8773 4.93527 11.8114 5.19194 11.6317 5.36052L9.45007 7.42552Z" fill="#FFB629"/>
</svg>
